# xmcd
#
# Track frame offsets:
#	150
#	11761
#	27306
#	44045
#	53904
#	71001
#	85679
#	98975
#	101821
#	116343
#	119541
#	137168
#	139026
#	147018
#	151320
#	168637
#	184666
#	189254
#	200529
#	204536
#	211041
#	224827
#	241780
#	243309
#	246822
#	264636
#	280047
#	295979
#	309384
#
# Disc length: 4437 seconds
#
# Revision: 4
# Processed by: cddbd v1.5.2PL0 Copyright (c) Steve Scherf et al.
# Submitted via: EZCDAudioConverter 1.3.4.1
#
DISCID=b511531d
DTITLE=Various Artist - ...Next Stop Is Vietnam - The War On Record: 1961-2008 [CD4: 
DTITLE=Hell No - We Won't Go)
DYEAR=2010
DGENRE=Rock - Funk - Soul - Blues - Pop - Folk - Country
TTITLE0=Phil Ochs - I Ain't Marching Anymore
TTITLE1=Matt Jones and Elaine Laron - Hell No, I Ain't Gonna Go
TTITLE2=Donovan - The War Drags On
TTITLE3=Fugs - Kill For Peace
TTITLE4=Country Joe and The Fish - I-Feel-Like-I'm-Fixin'-To-Die Rag
TTITLE5=Joan Baez - Saigon Bride
TTITLE6=Pete Seeger - Waist Deep In The Big Muddy
TTITLE7=Freedoms Roll-Call - PSA by Merv Griffin regarding upcoming 1968 elect
TTITLE7=ions
TTITLE8=Peter, Paul and Mary - Eugene McCarthy For President (If You Love Your C
TTITLE8=ountry)
TTITLE9=Senator Eugene McCarthy speaks on Vietnam (January 1968)
TTITLE10=Tim Hardin - Simple Song Of Freedom
TTITLE11=President Nixon speaks on Vietnam and the future of America (Janua
TTITLE11=ry 1969)
TTITLE12=Paul Revere and The Raiders - Fortunate Son
TTITLE13=Moratorium speaker: ''No More War...'' (October 1969)
TTITLE14=Melanie with The Edwin Hawkins Singers - Lay Down (Candles In The Rai
TTITLE14=n)
TTITLE15=Autry Inman and Bob Luman - Ballad Of Two Brothers
TTITLE16=President Nixon complains about ''Bums on campus...'' (May 2, 1970
TTITLE16=)
TTITLE17=Leroy Van Dyke - Mister Professor
TTITLE18=President Nixon announces ''Cambodian Incursion'' (April 30, 1970)
TTITLE19=Brigadier General Robert Canterbury, Ohio National Guard, explains
TTITLE19=what happened at Kent State University (May 4, 1970)
TTITLE20=Third Condition - Monday In May (The Kent State Tragedy)
TTITLE21=Barbara Dane - The Kent State Massacre
TTITLE22=A Kent State student: ''They didn't have blanks...'' (May 1970)
TTITLE23=Arthur Krause, Kent State father: ''Is this a reason for killing h
TTITLE23=er...?'' (1970)
TTITLE24=Beach Boys - Student Demonstration Time
TTITLE25=Edwin Starr - War
TTITLE26=Freda Payne - Bring The Boys Home
TTITLE27=Martha Reeves and The Vandellas - I Should Be Proud
TTITLE28=Grand Funk Railroad - People Let's Stop The War
EXTD=
EXTT0=
EXTT1=
EXTT2=
EXTT3=
EXTT4=
EXTT5=
EXTT6=
EXTT7=
EXTT8=
EXTT9=
EXTT10=
EXTT11=
EXTT12=
EXTT13=
EXTT14=
EXTT15=
EXTT16=
EXTT17=
EXTT18=
EXTT19=
EXTT20=
EXTT21=
EXTT22=
EXTT23=
EXTT24=
EXTT25=
EXTT26=
EXTT27=
EXTT28=
PLAYORDER=
